name Walk9.mot
datacolumns 19
datarows 27
range 4.37000000 4.50000000
endheader

                time	   L_ground_force_vx	   L_ground_force_vy	   L_ground_force_vz	   L_ground_force_px	   L_ground_force_py	   L_ground_force_pz	   R_ground_force_vx	   R_ground_force_vy	   R_ground_force_vz	   R_ground_force_px	   R_ground_force_py	   R_ground_force_pz	   L_ground_torque_x	   L_ground_torque_y	   L_ground_torque_z	   R_ground_torque_x	   R_ground_torque_y	   R_ground_torque_z	
          4.37000000	          0.00000000	          0.00000000	          0.00000000	          0.00000000	          0.00000000	          0.00000000	          7.73093305	         17.98714335	          2.74773701	          0.26789366	          0.00000000	          0.04406600	          0.00000000	          0.00000000	          0.00000000	          0.00000000	         -1.40303434	          0.00000000	
          4.37500000	          0.00000000	          0.00000000	          0.00000000	         -0.00000000	          0.00000000	         -0.00000000	          4.59657649	          8.03500256	          2.33901182	          0.20657711	          0.00000000	          0.03397160	          0.00000000	          0.00000000	          0.00000000	          0.00000000	         -0.80772190	          0.00000000	
          4.38000000	          0.00000000	          0.00000000	          0.00000000	         -0.00000000	          0.00000000	         -0.00000000	          2.22304073	          1.01741591	          1.89191673	          0.15091824	          0.00000000	          0.02481151	          0.00000000	          0.00000000	          0.00000000	          0.00000000	         -0.36207853	          0.00000000	
          4.38500000	          0.00000000	          0.00000000	         -0.00000000	         -0.00000000	          0.00000000	         -0.00000000	          0.52512258	         -3.56329176	          1.45557556	          0.10328948	          0.00000000	          0.01697504	          0.00000000	          0.00000000	          0.00000000	          0.00000000	         -0.04766003	          0.00000000	
          4.39000000	          0.00000000	          0.00000000	         -0.00000000	         -0.00000000	          0.00000000	         -0.00000000	         -0.60525028	         -6.21899756	          1.06064000	          0.06457713	          0.00000000	          0.01060714	          0.00000000	          0.00000000	          0.00000000	          0.00000000	          0.15773979	          0.00000000	
          4.39500000	          0.00000000	          0.00000000	         -0.00000000	         -0.00000000	          0.00000000	         -0.00000000	         -1.28226852	         -7.43020273	          0.72349168	          0.03464438	          0.00000000	          0.00568463	          0.00000000	          0.00000000	          0.00000000	          0.00000000	          0.27698341	          0.00000000	
          4.40000000	          0.00000000	          0.00000000	         -0.00000000	         -0.00000000	          0.00000000	         -0.00000000	         -1.61501527	         -7.61928595	          0.45006554	          0.01270914	          0.00000000	          0.00207833	          0.00000000	         -0.00000000	          0.00000000	          0.00000000	          0.33154599	          0.00000000	
          4.40500000	          0.00000000	          0.00000000	         -0.00000000	         -0.00000000	          0.00000000	         -0.00000000	         -1.70067113	         -7.13794796	          0.23912792	         -0.00236265	          0.00000000	         -0.00039868	          0.00000000	         -0.00000000	          0.00000000	          0.00000000	          0.34031464	          0.00000000	
          4.41000000	          0.00000000	          0.00000000	         -0.00000000	         -0.00000000	          0.00000000	         -0.00000000	         -1.62109805	         -6.26474986	          0.08494558	         -0.01184104	          0.00000000	         -0.00195562	          0.00000000	         -0.00000000	          0.00000000	          0.00000000	          0.31902303	          0.00000000	
          4.41500000	          0.00000000	          0.00000000	         -0.00000000	         -0.00000000	          0.00000000	         -0.00000000	         -1.44186013	         -5.20931886	         -0.02064674	         -0.01698286	          0.00000000	         -0.00279938	          0.00000000	         -0.00000000	          0.00000000	          0.00000000	          0.28013827	          0.00000000	
          4.42000000	         -0.00000000	          0.00000000	         -0.00000000	         -0.00000000	          0.00000000	         -0.00000000	         -1.21288461	         -4.12049728	         -0.08672814	         -0.01893707	          0.00000000	         -0.00311907	          0.00000000	         -0.00000000	          0.00000000	          0.00000000	          0.23304668	          0.00000000	
          4.42500000	         -0.00000000	         -0.00000000	         -0.00000000	         -0.00000000	          0.00000000	         -0.00000000	         -0.97012254	         -3.09637558	         -0.12224571	         -0.01869258	          0.00000000	         -0.00307741	          0.00000000	         -0.00000000	          0.00000000	          0.00000000	          0.18441658	          0.00000000	
          4.43000000	         -0.00000000	         -0.00000000	         -0.00000000	         -0.00000000	          0.00000000	         -0.00000000	         -0.73771897	         -2.19474030	         -0.13535429	         -0.01705743	          0.00000000	         -0.00280730	          0.00000000	         -0.00000000	          0.00000000	          0.00000000	          0.13864591	          0.00000000	
          4.43500000	         -0.00000000	         -0.00000000	         -0.00000000	         -0.00000000	          0.00000000	         -0.00000000	         -0.53033841	         -1.44296164	         -0.13305567	         -0.01465981	          0.00000000	         -0.00241206	          0.00000000	         -0.00000000	          0.00000000	          0.00000000	          0.09832886	          0.00000000	
          4.44000000	         -0.00000000	         -0.00000000	         -0.00000000	         -0.00000000	          0.00000000	         -0.00000000	         -0.35540592	         -0.84673973	         -0.12105852	         -0.01196284	          0.00000000	         -0.00196784	          0.00000000	         -0.00000000	          0.00000000	          0.00000000	          0.06469769	          0.00000000	
          4.44500000	         -0.00000000	         -0.00000000	         -0.00000000	          0.00000000	          0.00000000	          0.00000000	         -0.21511679	         -0.39742730	         -0.10379072	         -0.00928722	          0.00000000	         -0.00152733	          0.00000000	         -0.00000000	          0.00000000	          0.00000000	          0.03801387	          0.00000000	
          4.45000000	         -0.00000000	         -0.00000000	         -0.00000000	          0.00000000	          0.00000000	          0.00000000	         -0.10813895	         -0.07786024	         -0.08450862	         -0.00683688	          0.00000000	         -0.00112405	          0.00000000	         -0.00000000	          0.00000000	          0.00000000	          0.01789561	          0.00000000	
          4.45500000	         -0.00000000	         -0.00000000	          0.00000000	          0.00000000	          0.00000000	          0.00000000	         -0.03098365	          0.13322972	         -0.06545977	         -0.00472482	          0.00000000	         -0.00077654	          0.00000000	         -0.00000000	          0.00000000	          0.00000000	          0.00357884	          0.00000000	
          4.46000000	         -0.00000000	         -0.00000000	          0.00000000	          0.00000000	          0.00000000	          0.00000000	          0.02094498	          0.25806077	         -0.04806704	         -0.00299671	          0.00000000	         -0.00049227	          0.00000000	         -0.00000000	          0.00000000	          0.00000000	         -0.00588528	          0.00000000	
          4.46500000	         -0.00000000	         -0.00000000	          0.00000000	          0.00000000	          0.00000000	          0.00000000	          0.05258931	          0.31770301	         -0.03311189	         -0.00165151	          0.00000000	         -0.00027104	          0.00000000	         -0.00000000	          0.00000000	          0.00000000	         -0.01148897	          0.00000000	
          4.47000000	         -0.00000000	         -0.00000000	          0.00000000	          0.00000000	          0.00000000	          0.00000000	          0.06872303	          0.33082396	         -0.02090270	         -0.00065824	          0.00000000	         -0.00010773	          0.00000000	          0.00000000	          0.00000000	          0.00000000	         -0.01417388	          0.00000000	
          4.47500000	         -0.00000000	         -0.00000000	          0.00000000	          0.00000000	          0.00000000	          0.00000000	          0.07363411	          0.31307400	         -0.01142003	          0.00003078	          0.00000000	          0.00000551	          0.00000000	          0.00000000	          0.00000000	          0.00000000	         -0.01477467	          0.00000000	
          4.48000000	         -0.00000000	         -0.00000000	          0.00000000	          0.00000000	          0.00000000	          0.00000000	          0.07095992	          0.27693092	         -0.00443579	          0.00047020	          0.00000000	          0.00007770	          0.00000000	          0.00000000	          0.00000000	          0.00000000	         -0.01399145	          0.00000000	
          4.48500000	         -0.00000000	         -0.00000000	          0.00000000	          0.00000000	          0.00000000	          0.00000000	          0.06363294	          0.23185118	          0.00039389	          0.00071481	          0.00000000	          0.00011784	          0.00000000	          0.00000000	          0.00000000	          0.00000000	         -0.01238263	          0.00000000	
          4.49000000	         -0.00000000	         -0.00000000	          0.00000000	          0.00000000	          0.00000000	          0.00000000	          0.05390170	          0.18460579	          0.00345991	          0.00081514	          0.00000000	          0.00013427	          0.00000000	          0.00000000	          0.00000000	          0.00000000	         -0.01037161	          0.00000000	
          4.49500000	          0.00000000	          0.00000000	          0.00000000	          0.00000000	          0.00000000	          0.00000000	          0.04339827	          0.13970815	          0.00515246	          0.00081501	          0.00000000	          0.00013418	          0.00000000	          0.00000000	          0.00000000	          0.00000000	         -0.00826172	          0.00000000	
          4.50000000	          0.00000000	          0.00000000	          0.00000000	          0.00000000	          0.00000000	          0.00000000	          0.03323034	          0.09986694	          0.00583036	          0.00075047	          0.00000000	          0.00012352	          0.00000000	          0.00000000	          0.00000000	          0.00000000	         -0.00625528	          0.00000000	
